<svg xmlns="http://www.w3.org/2000/svg" xmlns:xlink="http://www.w3.org/1999/xlink">
  <symbol id="documentation-icon" viewBox="0 0 24 24" fill="none" stroke="currentColor" stroke-width="2">
    <path d="M4 19.5A2.5 2.5 0 0 1 6.5 17H20" />
    <path d="M6.5 2H20v20H6.5A2.5 2.5 0 0 1 4 19.5v-15A2.5 2.5 0 0 1 6.5 2z" />
  </symbol>
  <symbol id="social-icon" viewBox="0 0 24 24" fill="none" stroke="currentColor" stroke-width="2">
    <path d="M17 21v-2a4 4 0 0 0-4-4H5a4 4 0 0 0-4 4v2" />
    <circle cx="9" cy="7" r="4" />
    <path d="M23 21v-2a4 4 0 0 0-3-3.87" />
    <path d="M16 3.13a4 4 0 0 1 0 7.75" />
  </symbol>
  <symbol id="github-icon" viewBox="0 0 24 24" fill="currentColor">
    <path d="M12 .5C5.65.5.5 5.65.5 12a11.5 11.5 0 0 0 7.86 10.9c.57.1.78-.25.78-.55 0-.27-.01-1.16-.01-2.1-3.2.7-3.87-1.37-3.87-1.37-.52-1.33-1.28-1.68-1.28-1.68-1.05-.72.08-.7.08-.7 1.16.08 1.77 1.2 1.77 1.2 1.03 1.77 2.7 1.26 3.36.96.1-.75.4-1.26.73-1.55-2.55-.29-5.23-1.28-5.23-5.7 0-1.26.45-2.29 1.2-3.1-.12-.29-.52-1.46.11-3.05 0 0 .98-.31 3.2 1.18a11.1 11.1 0 0 1 5.8 0c2.22-1.5 3.2-1.18 3.2-1.18.63 1.59.23 2.76.11 3.05.75.81 1.2 1.84 1.2 3.1 0 5.43-2.69 6.4-5.26 6.74.42.36.8 1.08.8 2.18 0 1.57-.01 2.84-.01 3.23 0 .31.21.66.79.55A11.5 11.5 0 0 0 23.5 12C23.5 5.65 18.35.5 12 .5z" />
  </symbol>
  <symbol id="discord-icon" viewBox="0 0 24 24" fill="currentColor">
    <path d="M20.317 4.37a19.8 19.8 0 0 0-4.885-1.515.074.074 0 0 0-.079.037c-.21.375-.444.864-.608 1.25a18.27 18.27 0 0 0-5.487 0 12.64 12.64 0 0 0-.617-1.25.077.077 0 0 0-.079-.037A19.736 19.736 0 0 0 3.677 4.37a.07.07 0 0 0-.032.027C.533 9.046-.32 13.58.099 18.057a.082.082 0 0 0 .031.057 19.9 19.9 0 0 0 5.993 3.03.078.078 0 0 0 .084-.028 14.09 14.09 0 0 0 1.226-1.994.076.076 0 0 0-.041-.106 13.107 13.107 0 0 1-1.872-.892.077.077 0 0 1-.008-.128 10.2 10.2 0 0 0 .372-.292.074.074 0 0 1 .077-.01c3.928 1.793 8.18 1.793 12.062 0a.074.074 0 0 1 .078.01c.12.098.246.198.373.292a.077.077 0 0 1-.006.127 12.299 12.299 0 0 1-1.873.892.077.077 0 0 0-.041.107c.36.698.772 1.362 1.225 1.993a.076.076 0 0 0 .084.028 19.876 19.876 0 0 0 6.002-3.03.077.077 0 0 0 .032-.054c.5-5.177-.838-9.674-3.549-13.66a.061.061 0 0 0-.031-.03zM8.02 15.33c-1.183 0-2.157-1.085-2.157-2.419 0-1.333.956-2.419 2.157-2.419 1.21 0 2.176 1.096 2.157 2.42 0 1.333-.956 2.418-2.157 2.418zm7.975 0c-1.183 0-2.157-1.085-2.157-2.419 0-1.333.955-2.419 2.157-2.419 1.21 0 2.176 1.096 2.157 2.42 0 1.333-.946 2.418-2.157 2.418z" />
  </symbol>
  <symbol id="x-icon" viewBox="0 0 24 24" fill="currentColor">
    <path d="M18.244 2.25h3.308l-7.227 8.26 8.502 11.24H16.17l-5.214-6.817L4.99 21.75H1.68l7.73-8.835L1.254 2.25H8.08l4.713 6.231zm-1.161 17.52h1.833L7.084 4.126H5.117z" />
  </symbol>
  <symbol id="bluesky-icon" viewBox="0 0 24 24" fill="currentColor">
    <path d="M12 10.8c-1.087-2.114-4.046-6.053-6.798-7.995C2.566.944 1.561 1.266.902 1.565.139 1.908 0 3.08 0 3.768c0 .69.378 5.65.642 6.479.34 1.005.938 1.652 1.838 1.899 1.027.298 2.168.199 3.063-.5l2.283-1.71c1.607-1.208 2.625-1.99 3.174-2.551.55.56 1.567 1.343 3.174 2.551l2.283 1.71c.895.699 2.036.798 3.063.5.9-.247 1.498-.894 1.838-1.899.264-.83.642-5.788.642-6.479 0-.688-.139-1.86-.902-2.203-.659-.299-1.664-.621-4.3 1.24C16.046 4.748 13.087 8.687 12 10.8z" />
  </symbol>
</svg>
